<svg version="1.1" xmlns="http://www.w3.org/2000/svg" width="24" height="24" viewBox="0 0 32 28" aria-hidden="true" focusable="false">
          <path d="M2.71 26.79c0.312 0.314 0.743 0.508 1.22 0.508s0.908-0.194 1.22-0.507l10.85-10.85 10.86 10.85c0.312 0.312 0.744 0.505 1.22 0.505 0.953 0 1.725-0.772 1.725-1.725 0-0.476-0.193-0.908-0.505-1.22v0l-10.86-10.85 10.85-10.86c0.279-0.305 0.45-0.713 0.45-1.16 0-0.95-0.77-1.72-1.72-1.72-0.448 0-0.856 0.171-1.162 0.452l0.001-0.001-10.86 10.85-10.86-10.85c-0.316-0.344-0.767-0.56-1.27-0.56-0.95 0-1.72 0.77-1.72 1.72 0 0.502 0.215 0.954 0.558 1.268l0.001 0.001 10.85 10.86-10.85 10.86c-0.311 0.311-0.503 0.741-0.503 1.215s0.192 0.904 0.503 1.215l-0-0z"></path>
        </svg>