<svg xmlns="http://www.w3.org/2000/svg" width="126.472" height="45" viewBox="0 0 126.472 45"><path data-name="Rectangle 5793" fill="none" d="M0 0h126.472v45H0z"/><g data-name="Group 12405"><path data-name="Path 18837" d="M40.459 31.198l1.58-3.669a10.531 10.531 0 006.217 1.936c1.656 0 2.7-.637 2.7-1.605-.025-2.7-9.911-.586-9.987-7.363-.025-3.439 3.032-6.089 7.363-6.089a11.332 11.332 0 016.981 2.089l-1.478 3.745a11.152 11.152 0 00-5.758-1.834c-1.35 0-2.242.637-2.242 1.452.025 2.65 9.987 1.2 10.089 7.669 0 3.516-2.981 5.987-7.261 5.987a13.948 13.948 0 01-8.2-2.318"/><path data-name="Path 18838" d="M101.071 26.208a4.561 4.561 0 110-4.484l4.357-2.42a9.554 9.554 0 100 9.325z"/><path data-name="Rectangle 5789" d="M58.115 6.484h5.452v26.675h-5.452z"/><path data-name="Path 18839" d="M107.567 6.484v26.675h5.452v-8l6.471 8h6.977l-8.229-9.5 7.618-8.866h-6.675l-6.166 7.363V6.484z"/><path data-name="Path 18840" d="M79.771 26.255a5.028 5.028 0 01-4.255 2.267 4.561 4.561 0 110-9.121 5.03 5.03 0 014.255 2.344zm0-11.465v2.166c-.892-1.5-3.108-2.548-5.427-2.548-4.79 0-8.56 4.229-8.56 9.529s3.771 9.58 8.56 9.58c2.318 0 4.535-1.045 5.427-2.548v2.166h5.452V14.79z"/></g><g data-name="Group 12410"><g data-name="Group 12406"><path data-name="Path 18841" d="M6.751 26.229a3.363 3.363 0 11-3.363-3.363h3.363z"/><path data-name="Path 18842" d="M8.433 26.229a3.363 3.363 0 016.726 0v8.408a3.363 3.363 0 11-6.726 0z"/></g><g data-name="Group 12407"><path data-name="Path 18843" d="M11.796 12.726a3.363 3.363 0 113.363-3.363v3.363z"/><path data-name="Path 18844" d="M11.8 14.433a3.363 3.363 0 110 6.726H3.363a3.363 3.363 0 110-6.726z"/></g><g data-name="Group 12408"><path data-name="Path 18845" d="M25.274 17.796a3.363 3.363 0 113.363 3.363h-3.363z"/><path data-name="Path 18846" d="M23.592 17.8a3.363 3.363 0 11-6.726 0V9.363a3.363 3.363 0 016.726 0z"/></g><g data-name="Group 12409"><path data-name="Path 18847" d="M20.229 31.274a3.363 3.363 0 11-3.363 3.363v-3.363z"/><path data-name="Path 18848" d="M20.229 29.592a3.363 3.363 0 110-6.726h8.437a3.363 3.363 0 110 6.726z"/></g></g></svg>